#!OML:ASF Y:\EmotionMaleHayes\Project 1\Capture day 1\Session 1\Male1.ASF
:FULLY-SPECIFIED
:DEGREES
1149
root 44.1499 16.564 14.777 537.782 35.3217 541.79
lowerback 7.28244 3.39876 -3.66305
upperback 2.51451 4.4024 -1.82669
thorax -1.59916 2.26805 -0.215351
lowerneck -19.5574 6.594 10.0069
upperneck 29.842 10.2918 -7.81505
head 14.5006 4.98905 -2.84766
rclavicle -3.58806e-014 7.95139e-015
rhumerus -24.7956 12.2383 -84.6222
rradius 45.9803
rwrist -0.236994
rhand -12.2575 -30.3086
rfingers 7.12502
rthumb 13.8089 -59.8302
lclavicle -3.58806e-014 7.95139e-015
lhumerus -35.8575 -3.78024 83.0391
lradius 31.7701
lwrist -6.7425
lhand -11.9015 -22.9841
lfingers 7.12502
lthumb 14.1519 6.51391
rfemur 10.2958 -10.8344 20.3419
rtibia 42.5391
rfoot -10.3344 -1.31284
rtoes -13.0888
lfemur -21.6322 24.046 -17.1403
ltibia 15.7634
lfoot -10.0104 24.2931
ltoes 1.11473
1150
root 44.2341 16.5839 14.7004 537.818 33.7122 541.877
lowerback 7.29385 3.21673 -3.47194
upperback 2.55751 4.17762 -1.79444
thorax -1.54496 2.15642 -0.266264
lowerneck -19.8403 6.3954 9.80007
upperneck 30.1542 10.0034 -7.54612
head 14.635 4.87908 -2.75531
rclavicle 1.2096e-013 2.3059e-014
rhumerus -25.5599 11.3897 -84.7226
rradius 45.0073
rwrist 0.497696
rhand -11.914 -30.2331
rfingers 7.12502
rthumb 14.1399 -59.732
lclavicle 1.2096e-013 2.3059e-014
lhumerus -35.0657 -4.89584 83.7971
lradius 32.5872
lwrist -6.38948
lhand -11.8272 -23.0834
lfingers 7.12502
lthumb 14.2235 6.40955
rfemur 10.2958 -10.8344 20.3419
rtibia 42.5391
rfoot -10.3344 -1.31284
rtoes -13.0888
lfemur -21.6322 24.046 -17.1403
ltibia 15.7634
lfoot -10.0104 24.2931
ltoes 1.11473
1151
root 44.3172 16.6081 14.6269 537.667 32.103 541.625
lowerback 7.30004 3.04565 -3.74252
upperback 2.61617 3.94039 -1.79049
thorax -1.49982 2.03967 -0.0892083
lowerneck -20.0133 6.15417 9.36183
upperneck 30.2359 9.6296 -7.10794
head 14.6086 4.72405 -2.57295
rclavicle 1.69961e-014 8.74653e-015
rhumerus -26.4461 11.7799 -84.9877
rradius 44.0853
rwrist 0.40573
rhand -12.259 -30.2866
rfingers 7.12502
rthumb 13.8074 -59.8083
lclavicle 1.69961e-014 8.74653e-015
lhumerus -34.0184 -4.71565 84.1528
lradius 32.9582
lwrist -7.29993
lhand -11.4234 -23.1244
lfingers 7.12502
lthumb 14.6126 6.34075
rfemur -3.91059 -8.00297 12.4307
rtibia 63.611
rfoot 4.07465 4.54964
rtoes -1.90987
lfemur -21.6322 24.046 -17.1403
ltibia 15.7634
lfoot -10.0104 24.2931
ltoes 1.11473
1152
root 44.401 16.6343 14.5521 537.565 30.5949 541.367
lowerback 7.22421 2.84033 -4.25523
upperback 2.68341 3.64334 -1.63097
thorax -1.42046 1.88876 0.392065
lowerneck -20.1584 6.19404 9.56513
upperneck 30.4693 9.74166 -7.31282
head 14.785 4.7758 -2.6655
rclavicle 1.80894e-014 4.29375e-014
rhumerus -27.261 12.5607 -85.0749
rradius 43.1572
rwrist 0.228917
rhand -12.08 -30.3146
rfingers 7.12502
rthumb 13.9799 -59.8245
lclavicle 1.80894e-014 4.29375e-014
lhumerus -33.7008 -7.48564 85.5759
lradius 34.5363
lwrist -4.97039
lhand -11.4974 -21.8076
lfingers 7.12502
lthumb 14.5413 7.66277
rfemur -4.85446 -7.70163 12.1138
rtibia 64.1668
rfoot 3.39608 2.51184
rtoes 3.68701
lfemur -21.6322 24.046 -17.1403
ltibia 15.7634
lfoot -10.0104 24.2931
ltoes 1.11473
1153
root 44.4794 16.6609 14.4754 537.49 29.1336 541.102
lowerback 7.18243 2.65803 -4.64257
upperback 2.71923 3.38196 -1.51776
thorax -1.37746 1.75639 0.75003
lowerneck -19.9615 5.98458 9.04132
upperneck 30.2209 9.50115 -7.05188
head 14.5521 4.65154 -2.52087
rclavicle -2.00773e-014 1.59028e-015
rhumerus -28.0475 12.7774 -85.0751
rradius 42.2569
rwrist 0.257239
rhand -11.6045 -30.308
rfingers 7.12502
rthumb 14.4381 -59.7858
lclavicle -2.00773e-014 1.59028e-015
lhumerus -32.5902 -6.3938 85.7847
lradius 34.7542
lwrist -6.60154
lhand -11.5173 -22.9621
lfingers 7.12502
lthumb 14.5222 6.50964
rfemur -5.81106 -7.32783 11.7142
rtibia 64.5841
rfoot 2.781 0.654658
rtoes 7.88536
lfemur -21.6322 24.046 -17.1403
ltibia 15.7634
lfoot -10.0104 24.2931
ltoes 1.11473
